<svg width="460" height="460" viewBox="0 0 460 460" fill="none" xmlns="http://www.w3.org/2000/svg">
<path d="M425.934 0H171.662C153.54 0 138.798 14.743 138.798 32.864V109.998C145.783 109.998 282.868 109.998 288.341 109.998C323.005 109.998 351.206 138.199 351.206 172.863C351.206 179.352 351.206 318.354 351.206 320.002H425.934C444.055 320.002 458.798 305.259 458.798 287.137V32.864C458.797 14.743 444.055 0 425.934 0Z" fill="#282C34"/>
<path d="M288.339 139.998H34.068C15.947 139.998 1.203 154.741 1.203 172.863V427.135C1.204 445.257 15.946 460 34.068 460H288.34C306.462 460 321.205 445.257 321.205 427.136V172.863C321.206 154.741 306.461 139.998 288.339 139.998Z" fill="#282C34"/>
</svg>
